<svg width="37" height="23" fill="none" xmlns="http://www.w3.org/2000/svg"><path d="M23.502 20.42H13.501V2.447h10.001V20.42Z" fill="#EC662B"/><path d="M35.92 18.512v-.367h.145v-.075h-.376v.075h.147v.367h.083Zm.73 0v-.442h-.113l-.134.299-.134-.299h-.117v.442h.084v-.334l.125.298h.084l.125-.298v.334h.08Z" fill="#F49729"/><path d="M14.154 11.43a11.408 11.408 0 0 1 4.365-8.983 11.432 11.432 0 1 0 0 17.97 11.41 11.41 0 0 1-4.365-8.987Z" fill="#E5262E"/><path d="M37 11.43a11.429 11.429 0 0 1-18.493 8.987 11.424 11.424 0 0 0 0-17.97A11.43 11.43 0 0 1 37 11.43Z" fill="#F6A02D"/></svg>