<?xml version="1.0" encoding="utf-8"?>
<!-- Generator: Adobe Illustrator 24.3.0, SVG Export Plug-In . SVG Version: 6.00 Build 0)  -->
<svg version="1.1" id="Layer_1" xmlns="http://www.w3.org/2000/svg" xmlns:xlink="http://www.w3.org/1999/xlink" x="0px" y="0px"
	 viewBox="0 0 60 60" style="enable-background:new 0 0 60 60;" xml:space="preserve">
<style type="text/css">
	.st0{fill:#FFFFFF;}
</style>
<path class="st0" d="M5,35.1c-0.6,1.2-0.2,2.8,0.9,3.5l2.5,1.6c1.1,0.7,2.1,2.4,2.2,3.8l0.2,3c0.1,1.3,1.2,2.5,2.6,2.6l3,0.1
	c1.3,0.1,3,1,3.8,2.2l1.6,2.5c0.7,1.1,2.3,1.6,3.5,0.9l2.6-1.4c1.2-0.6,3.2-0.6,4.4,0l2.6,1.4c1.2,0.6,2.8,0.2,3.5-0.9l1.6-2.5
	c0.7-1.1,2.4-2.1,3.8-2.2l3-0.1c1.3-0.1,2.5-1.2,2.6-2.6l0.2-3c0.1-1.3,1-3.1,2.2-3.8l2.5-1.6c1.1-0.7,1.6-2.3,0.9-3.5l-1.4-2.6
	c-0.6-1.2-0.6-3.2,0-4.4l1.4-2.6c0.6-1.2,0.2-2.8-0.9-3.5l-2.5-1.6c-0.1,0-0.1-0.1-0.2-0.1L48,24.7c0.5,1.7,0.8,3.6,0.8,5.5
	C48.8,40.6,40.4,49,30,49c-10.4,0-18.8-8.4-18.8-18.8S19.6,11.4,30,11.4c3.9,0,7.5,1.2,10.5,3.2l3-3.9c-1.3-0.2-2.8-1.1-3.5-2.1
	l-1.6-2.5C37.6,5,36,4.6,34.8,5.2l-2.6,1.4c-1.2,0.6-3.2,0.6-4.4,0l-2.6-1.4C24,4.6,22.4,5,21.7,6.1l-1.6,2.5
	c-0.7,1.1-2.4,2.1-3.8,2.2l-3,0.1c-1.3,0.1-2.5,1.2-2.6,2.6l-0.2,3c-0.1,1.3-1,3.1-2.2,3.8l-2.5,1.6c-1.1,0.7-1.6,2.3-0.9,3.5
	l1.4,2.6c0.6,1.2,0.6,3.2,0,4.4L5,35.1z"/>
<path class="st0" d="M40.8,18.2L29.9,32.5L24.6,26c-1.3-1.5-3.5-1.8-5.1-0.5c-1.5,1.3-1.8,3.5-0.5,5.1l8.2,10.1
	c0.7,0.8,1.7,1.3,2.8,1.3c0,0,0,0,0.1,0c1.1,0,2.1-0.5,2.8-1.4l12.3-16l1.8-2.4l1.3-1.7l1.6-2.1l1.3-1.7c1.2-1.6,0.9-3.8-0.7-5
	c-1-0.8-2.3-0.9-3.5-0.5c-0.6,0.2-1.1,0.6-1.6,1.2l-1.8,2.4l-1.2,1.6L40.8,18.2z"/>
</svg>
