<?xml version="1.0" encoding="utf-8"?>
<!-- Generator: Adobe Illustrator 24.3.0, SVG Export Plug-In . SVG Version: 6.00 Build 0)  -->
<svg version="1.1" id="Layer_1" xmlns="http://www.w3.org/2000/svg" xmlns:xlink="http://www.w3.org/1999/xlink" x="0px" y="0px"
	 viewBox="0 0 60 60" style="enable-background:new 0 0 60 60;" xml:space="preserve">
<style type="text/css">
	.st0{fill:#FFFFFF;}
</style>
<g>
	<path class="st0" d="M8.2,15.6c4,0,7.3-3.3,7.3-7.3c0-4-3.3-7.3-7.3-7.3c-4,0-7.3,3.3-7.3,7.3C0.9,12.4,4.2,15.6,8.2,15.6z
		 M8.2,3.3c2.8,0,5,2.3,5,5c0,2.8-2.3,5-5,5c-2.8,0-5-2.3-5-5C3.1,5.6,5.4,3.3,8.2,3.3z"/>
	<path class="st0" d="M6.2,48.7c-2.9,0-5.3,2.4-5.3,5.3c0,2.9,2.4,5.3,5.3,5.3c2.9,0,5.3-2.4,5.3-5.3C11.6,51.1,9.2,48.7,6.2,48.7z
		 M6.2,57.1c-1.7,0-3.1-1.4-3.1-3.1c0-1.7,1.4-3.1,3.1-3.1c1.7,0,3.1,1.4,3.1,3.1C9.3,55.7,7.9,57.1,6.2,57.1z"/>
	<path class="st0" d="M19.4,50c-0.9,0-1.7,0.8-1.7,1.7c0,0.9,0.8,1.7,1.7,1.7c0.9,0,1.7-0.8,1.7-1.7C21.1,50.8,20.4,50,19.4,50z"/>
	<path class="st0" d="M57.5,17.5c0.9,0,1.7-0.8,1.7-1.7c0-0.9-0.8-1.7-1.7-1.7c-0.9,0-1.7,0.8-1.7,1.7
		C55.8,16.7,56.6,17.5,57.5,17.5z"/>
	<path class="st0" d="M45,6.1h1.7v1.7c0,0.6,0.5,1.1,1.1,1.1c0.6,0,1.1-0.5,1.1-1.1V6.1h1.7c0.6,0,1.1-0.5,1.1-1.1s-0.5-1.1-1.1-1.1
		h-1.7V2.2c0-0.6-0.5-1.1-1.1-1.1c-0.6,0-1.1,0.5-1.1,1.1v1.7H45c-0.6,0-1.1,0.5-1.1,1.1S44.4,6.1,45,6.1z"/>
	<path class="st0" d="M43.3,32.4c-8.8,0-15.9,7.2-15.9,15.9c0,3.9,1.4,7.7,4,10.6c0.2,0.2,0.5,0.4,0.8,0.4h22.1
		c0.3,0,0.6-0.1,0.8-0.4c2.6-2.9,4-6.7,4-10.6C59.2,39.6,52,32.4,43.3,32.4z M53.8,57.1H32.7c-2-2.5-3.1-5.5-3.1-8.7
		c0-7.6,6.1-13.7,13.7-13.7S57,40.8,57,48.4C57,51.6,55.8,54.7,53.8,57.1z"/>
	<path class="st0" d="M43.3,38.1c-5.7,0-10.3,4.6-10.3,10.3c0,0.6,0.5,1.1,1.1,1.1c0.6,0,1.1-0.5,1.1-1.1c0-4.5,3.6-8.1,8.1-8.1
		c0.6,0,1.1-0.5,1.1-1.1C44.4,38.6,43.9,38.1,43.3,38.1z"/>
	<path class="st0" d="M48.2,21.8c-0.5,0-1.1,0-1.6,0.1C44.5,14.6,37.7,9.4,30,9.4c-7.7,0-14.5,5.2-16.5,12.5
		c-0.5-0.1-1.1-0.1-1.6-0.1c-6.1,0-11,4.9-11,11s4.9,11,11,11h11.7c0.6,0,1.1-0.5,1.1-1.1c0-0.6-0.5-1.1-1.1-1.1H11.9
		c-4.8,0-8.8-3.9-8.8-8.8c0-4.8,3.9-8.8,8.8-8.8c0.7,0,1.4,0.1,2.1,0.3c0.3,0.1,0.6,0,0.9-0.1c0.3-0.2,0.4-0.4,0.5-0.7
		c1.5-6.8,7.6-11.8,14.6-11.8c7,0,13.1,5,14.6,11.8c0.1,0.3,0.2,0.6,0.5,0.7c0.3,0.2,0.6,0.2,0.9,0.1c0.7-0.2,1.4-0.3,2.1-0.3
		C53,24,57,28,57,32.8c0,0.4,0,0.8-0.1,1.3c-0.1,0.6,0.3,1.2,1,1.3c0.6,0.1,1.2-0.3,1.3-1c0.1-0.5,0.1-1.1,0.1-1.6
		C59.2,26.7,54.3,21.8,48.2,21.8z"/>
	<path class="st0" d="M31.2,16.2c0-0.6-0.5-1.1-1.1-1.1c-5.4,0-10.2,3.8-11.3,9.1c-0.1,0.6,0.3,1.2,0.9,1.3c0.1,0,0.2,0,0.2,0
		c0.5,0,1-0.4,1.1-0.9c0.9-4.3,4.8-7.4,9.1-7.4C30.7,17.3,31.2,16.8,31.2,16.2z"/>
</g>
</svg>
