<svg id="Layer_1" data-name="Layer 1" xmlns="http://www.w3.org/2000/svg" width="159.72" height="60.14" viewBox="0 0 159.72 60.14"><defs><style>.cls-1,.cls-2{fill:#00aeef;}.cls-2{stroke:#00aeef;stroke-linejoin:round;stroke-width:6.02px;}.cls-3{fill:#fff;}</style></defs><path class="cls-1" d="M14,28.05a9,9,0,1,1-9,9,9,9,0,0,1,9-9m0-1.51A10.54,10.54,0,1,0,24.53,37.08,10.55,10.55,0,0,0,14,26.54Z" transform="translate(-3.45 -3.77)"/><path class="cls-1" d="M14.15,13.94a4,4,0,1,1-4,4,4,4,0,0,1,4-4m0-1a5,5,0,1,0,5,5,5,5,0,0,0-5-5Z" transform="translate(-3.45 -3.77)"/><path class="cls-1" d="M18.49,9a2.37,2.37,0,1,1-2.37,2.37A2.37,2.37,0,0,1,18.49,9m0-1a3.38,3.38,0,1,0,3.38,3.38A3.38,3.38,0,0,0,18.49,8Z" transform="translate(-3.45 -3.77)"/><path class="cls-1" d="M5.32,18.84a.67.67,0,1,1-.66.67.66.66,0,0,1,.66-.67m0-1A1.67,1.67,0,1,0,7,19.51a1.66,1.66,0,0,0-1.67-1.67Z" transform="translate(-3.45 -3.77)"/><path class="cls-1" d="M49.75,4.56a1.22,1.22,0,0,1,0,2.44,1.22,1.22,0,1,1,0-2.44m0-.79a2,2,0,1,0,2,2,2,2,0,0,0-2-2Z" transform="translate(-3.45 -3.77)"/><path class="cls-1" d="M55.69,6.81A3.79,3.79,0,1,1,51.9,10.6a3.79,3.79,0,0,1,3.79-3.79m0-1a4.79,4.79,0,1,0,4.8,4.79,4.8,4.8,0,0,0-4.8-4.79Z" transform="translate(-3.45 -3.77)"/><path class="cls-1" d="M88.9,11.25a4.22,4.22,0,1,1-4.22,4.22,4.22,4.22,0,0,1,4.22-4.22m0-1.11a5.34,5.34,0,1,0,5.33,5.33,5.34,5.34,0,0,0-5.33-5.33Z" transform="translate(-3.45 -3.77)"/><path class="cls-1" d="M96.4,14.16a2.64,2.64,0,1,1-2.64,2.63,2.63,2.63,0,0,1,2.64-2.63m0-1A3.64,3.64,0,1,0,100,16.79a3.65,3.65,0,0,0-3.64-3.64Z" transform="translate(-3.45 -3.77)"/><path class="cls-1" d="M109.88,13.62a6.32,6.32,0,1,1-6.31,6.31,6.31,6.31,0,0,1,6.31-6.31m0-1.67a8,8,0,1,0,8,8,8,8,0,0,0-8-8Z" transform="translate(-3.45 -3.77)"/><path class="cls-1" d="M119.63,13.67a3,3,0,1,1-3,3,3,3,0,0,1,3-3m0-1a4,4,0,1,0,4.05,4,4.05,4.05,0,0,0-4.05-4Z" transform="translate(-3.45 -3.77)"/><path class="cls-1" d="M115.47,10.45a1.05,1.05,0,1,1-1,1.05,1,1,0,0,1,1-1.05m0-1a2.05,2.05,0,1,0,2,2.05,2.05,2.05,0,0,0-2-2.05Z" transform="translate(-3.45 -3.77)"/><path class="cls-1" d="M155.92,21.47a4.66,4.66,0,1,1-4.65,4.66,4.66,4.66,0,0,1,4.65-4.66m0-1.23a5.89,5.89,0,1,0,5.89,5.89,5.89,5.89,0,0,0-5.89-5.89Z" transform="translate(-3.45 -3.77)"/><path class="cls-1" d="M160.15,32.89a2,2,0,1,1-2,2,2,2,0,0,1,2-2m0-1a3,3,0,1,0,3,3,3,3,0,0,0-3-3Z" transform="translate(-3.45 -3.77)"/><path class="cls-1" d="M134.65,50h.25a2.78,2.78,0,0,1-.25,5.55h-.25a2.78,2.78,0,0,1,.25-5.55m0-.74h0a3.52,3.52,0,0,0-.31,7h.31a3.51,3.51,0,0,0,2.7-5.77A3.44,3.44,0,0,0,135,49.29l-.31,0Z" transform="translate(-3.45 -3.77)"/><path class="cls-1" d="M142.58,48.35l.4,0a4.57,4.57,0,0,1,4,5,4.5,4.5,0,0,1-4.37,4.23l-.39,0a4.58,4.58,0,0,1-4-5,4.48,4.48,0,0,1,4.36-4.22m0-.5h0a5,5,0,0,0-4.86,4.68,5.08,5.08,0,0,0,4.43,5.57l.44,0a5,5,0,0,0,4.87-4.68A5.07,5.07,0,0,0,143,47.87l-.45,0Z" transform="translate(-3.45 -3.77)"/><path class="cls-1" d="M137.43,56.82h.1a1,1,0,0,1-.1,2.08h-.09a1,1,0,0,1,.09-2.08m0-.5h0a1.54,1.54,0,0,0-.13,3.08h.13A1.54,1.54,0,0,0,139,58a1.51,1.51,0,0,0-.35-1.12,1.55,1.55,0,0,0-1.05-.55Z" transform="translate(-3.45 -3.77)"/><path class="cls-1" d="M89.84,45.77a2.55,2.55,0,0,1,.39,0,4.56,4.56,0,0,1,4,5A4.49,4.49,0,0,1,89.85,55a2.55,2.55,0,0,1-.39,0,4.55,4.55,0,0,1-4-5,4.48,4.48,0,0,1,4.36-4.22m0-.5h0A5,5,0,0,0,85,50a5.07,5.07,0,0,0,4.43,5.56,3.31,3.31,0,0,0,.44,0,5,5,0,0,0,4.87-4.68,5.08,5.08,0,0,0-4.44-5.56,3.24,3.24,0,0,0-.44,0Z" transform="translate(-3.45 -3.77)"/><path class="cls-1" d="M84.69,54.24h.09a1,1,0,0,1-.09,2.07H84.6a1,1,0,0,1,.09-2.08m0-.5h0a1.53,1.53,0,0,0-1.54,1.41,1.56,1.56,0,0,0,1.4,1.67h.14a1.54,1.54,0,0,0,.14-3.07Z" transform="translate(-3.45 -3.77)"/><path class="cls-1" d="M34.59,52a3.14,3.14,0,1,1-3.13,3.14A3.14,3.14,0,0,1,34.59,52m0-.83a4,4,0,1,0,4,4,4,4,0,0,0-4-4Z" transform="translate(-3.45 -3.77)"/><path class="cls-1" d="M40.12,58.32a2.29,2.29,0,1,1-2.3,2.29,2.29,2.29,0,0,1,2.3-2.29m0-1a3.3,3.3,0,1,0,3.29,3.3,3.3,3.3,0,0,0-3.29-3.3Z" transform="translate(-3.45 -3.77)"/><path class="cls-1" d="M34.09,61.17a.84.84,0,0,1,.84.84.85.85,0,1,1-.84-.84m0-1A1.85,1.85,0,1,0,35.94,62a1.85,1.85,0,0,0-1.85-1.85Z" transform="translate(-3.45 -3.77)"/><g id="Splash"><path class="cls-2" d="M47.75,38.93c0,7-7.11,11.74-16.53,11.74-9.95,0-15.48-5.22-15.48-11.16,0-4.95,3.79-7.48,8-7.48A11.05,11.05,0,0,1,30,34c-.68.31-1.31,1.84-1.31,3a3,3,0,0,0,3.32,3,2.79,2.79,0,0,0,3-2.69c0-4.79-14.74-4.42-14.74-14,0-5.69,5.16-10.74,14.74-10.74,8.53,0,14.11,4,14.11,9.74,0,4.21-2.9,7-7.53,7a9.24,9.24,0,0,1-5.37-1.79,5.79,5.79,0,0,0,.89-2.84,2.52,2.52,0,0,0-2.73-2.69,2.52,2.52,0,0,0-2.74,2.53C31.64,29.82,47.75,28.34,47.75,38.93Z" transform="translate(-3.45 -3.77)"/><path class="cls-2" d="M56.8,27.66A10,10,0,0,1,65,23c4.74,0,7.64,3.58,7.64,9.68C72.6,42,66,49.56,59.33,49.56a8,8,0,0,1-4-1v1.21c0,2,.84,3.79,2.42,4.37a7,7,0,0,1-7,5.58c-3.27,0-5.85-1.89-5.85-6.26,0-5.53,4.16-16,4.16-20.85C49,30.13,48,29,46.33,29a5.07,5.07,0,0,1,5.32-4.79A5.53,5.53,0,0,1,56.8,27.66Zm-.1,10a3.61,3.61,0,0,1,1.16.58,3,3,0,0,0-1,2.37c0,1.31.63,1.95,1.47,1.95,2.21,0,4.27-4.74,4.27-9.06,0-1.84-.37-3.37-1.69-3.37C58.91,30.08,57.59,33.56,56.7,37.61Z" transform="translate(-3.45 -3.77)"/><path class="cls-2" d="M84.81,43.35c-.37,3.42-3.89,6.58-8.16,6.58-4.42,0-6-3.42-6-6.58,0-5.42,4.48-16.06,4.48-22.06,0-1.89-1.05-2.95-2.37-3.05.16-3,3-5.74,6.79-5.74,3.27,0,6.06,2.05,6.06,6.42,0,5.42-4.27,16.95-4.27,21.27C81.39,43,83.13,43.35,84.81,43.35Z" transform="translate(-3.45 -3.77)"/><path class="cls-2" d="M96.61,30.08A1.67,1.67,0,0,0,95,31.82a2.1,2.1,0,0,0,1,1.79,4.72,4.72,0,0,1-4,1.79,5.19,5.19,0,0,1-5.48-5.32c0-3.95,3.79-7,10-7s11.21,3.21,11.21,9.11c0,2.68-1,6-1,7.73,0,1.37.63,2.69,2.42,2.69,0,2.1-1.9,7.37-7.21,7.37a5.64,5.64,0,0,1-5.06-2.63,9.32,9.32,0,0,1-6.79,2.84c-4,0-7.42-2.32-7.42-6.79,0-4.27,3.21-7.63,8.21-7.63a14.53,14.53,0,0,1,6.74,1.79,12.17,12.17,0,0,0,1-4.37C98.4,31.19,97.71,30.08,96.61,30.08ZM95.18,40.93a7.26,7.26,0,0,0-2.94-1c-.9,0-1.53.47-1.53,1.16s.53,1.1,1.53,1.1A4.2,4.2,0,0,0,95.18,40.93Z" transform="translate(-3.45 -3.77)"/><path class="cls-2" d="M129.46,42.08c0,5-4.79,8.06-11.58,8.06-6.59,0-10.48-3.37-10.48-7.69a5.52,5.52,0,0,1,5.42-5.73c2.74,0,3.84,1,4.37,1.79a2.16,2.16,0,0,0-.89,1.84,2.11,2.11,0,0,0,2.21,2.16,2,2,0,0,0,2.16-2.16c0-3.27-10.06-2.79-10.06-9.58,0-4.11,4-7.74,10.48-7.74,5.89,0,9.42,2.89,9.42,6.84,0,2.9-1.84,4.95-5.9,4.95a5.49,5.49,0,0,1-3.47-1.26,2.31,2.31,0,0,0,.68-1.58,1.76,1.76,0,0,0-1.94-1.9,1.64,1.64,0,0,0-1.69,1.69C118.19,35.29,129.46,34.5,129.46,42.08Z" transform="translate(-3.45 -3.77)"/><path class="cls-2" d="M137.62,12.5a5.58,5.58,0,0,1,5.84,5.74c0,3-1.37,5.63-2.47,8A9.89,9.89,0,0,1,147.94,23c4.21,0,6.37,3.1,6.37,7,0,3.47-1.79,6.79-1.79,9.74,0,1.63.52,2.84,2.42,2.84-.26,3.95-3.42,7.37-7.32,7.37-3.16,0-5.42-2.32-5.42-5.74,0-4.11,3.21-8.95,3.21-12,0-1.32-.58-2.11-1.53-2.11-2.37,0-4.74,4.85-4.74,8.74,0,2.69,1.16,4.21,2.85,4.69a7,7,0,0,1-7.43,6.42c-4.42,0-5.94-3.42-5.94-6.58,0-5.42,4.47-16.06,4.47-22.06,0-1.89-1.05-2.95-2.37-3.05C130.93,15.08,133.78,12.5,137.62,12.5Z" transform="translate(-3.45 -3.77)"/><path class="cls-3" d="M47.75,38.93c0,7-7.11,11.74-16.53,11.74-9.95,0-15.48-5.22-15.48-11.16,0-4.95,3.79-7.48,8-7.48A11.05,11.05,0,0,1,30,34c-.68.31-1.31,1.84-1.31,3a3,3,0,0,0,3.32,3,2.79,2.79,0,0,0,3-2.69c0-4.79-14.74-4.42-14.74-14,0-5.69,5.16-10.74,14.74-10.74,8.53,0,14.11,4,14.11,9.74,0,4.21-2.9,7-7.53,7a9.24,9.24,0,0,1-5.37-1.79,5.79,5.79,0,0,0,.89-2.84,2.52,2.52,0,0,0-2.73-2.69,2.52,2.52,0,0,0-2.74,2.53C31.64,29.82,47.75,28.34,47.75,38.93Z" transform="translate(-3.45 -3.77)"/><path class="cls-3" d="M56.8,27.66A10,10,0,0,1,65,23c4.74,0,7.64,3.58,7.64,9.68C72.6,42,66,49.56,59.33,49.56a8,8,0,0,1-4-1v1.21c0,2,.84,3.79,2.42,4.37a7,7,0,0,1-7,5.58c-3.27,0-5.85-1.89-5.85-6.26,0-5.53,4.16-16,4.16-20.85C49,30.13,48,29,46.33,29a5.07,5.07,0,0,1,5.32-4.79A5.53,5.53,0,0,1,56.8,27.66Zm-.1,10a3.61,3.61,0,0,1,1.16.58,3,3,0,0,0-1,2.37c0,1.31.63,1.95,1.47,1.95,2.21,0,4.27-4.74,4.27-9.06,0-1.84-.37-3.37-1.69-3.37C58.91,30.08,57.59,33.56,56.7,37.61Z" transform="translate(-3.45 -3.77)"/><path class="cls-3" d="M84.81,43.35c-.37,3.42-3.89,6.58-8.16,6.58-4.42,0-6-3.42-6-6.58,0-5.42,4.48-16.06,4.48-22.06,0-1.89-1.05-2.95-2.37-3.05.16-3,3-5.74,6.79-5.74,3.27,0,6.06,2.05,6.06,6.42,0,5.42-4.27,16.95-4.27,21.27C81.39,43,83.13,43.35,84.81,43.35Z" transform="translate(-3.45 -3.77)"/><path class="cls-3" d="M96.61,30.08A1.67,1.67,0,0,0,95,31.82a2.1,2.1,0,0,0,1,1.79,4.72,4.72,0,0,1-4,1.79,5.19,5.19,0,0,1-5.48-5.32c0-3.95,3.79-7,10-7s11.21,3.21,11.21,9.11c0,2.68-1,6-1,7.73,0,1.37.63,2.69,2.42,2.69,0,2.1-1.9,7.37-7.21,7.37a5.64,5.64,0,0,1-5.06-2.63,9.32,9.32,0,0,1-6.79,2.84c-4,0-7.42-2.32-7.42-6.79,0-4.27,3.21-7.63,8.21-7.63a14.53,14.53,0,0,1,6.74,1.79,12.17,12.17,0,0,0,1-4.37C98.4,31.19,97.71,30.08,96.61,30.08ZM95.18,40.93a7.26,7.26,0,0,0-2.94-1c-.9,0-1.53.47-1.53,1.16s.53,1.1,1.53,1.1A4.2,4.2,0,0,0,95.18,40.93Z" transform="translate(-3.45 -3.77)"/><path class="cls-3" d="M129.46,42.08c0,5-4.79,8.06-11.58,8.06-6.59,0-10.48-3.37-10.48-7.69a5.52,5.52,0,0,1,5.42-5.73c2.74,0,3.84,1,4.37,1.79a2.16,2.16,0,0,0-.89,1.84,2.11,2.11,0,0,0,2.21,2.16,2,2,0,0,0,2.16-2.16c0-3.27-10.06-2.79-10.06-9.58,0-4.11,4-7.74,10.48-7.74,5.89,0,9.42,2.89,9.42,6.84,0,2.9-1.84,4.95-5.9,4.95a5.49,5.49,0,0,1-3.47-1.26,2.31,2.31,0,0,0,.68-1.58,1.76,1.76,0,0,0-1.94-1.9,1.64,1.64,0,0,0-1.69,1.69C118.19,35.29,129.46,34.5,129.46,42.08Z" transform="translate(-3.45 -3.77)"/><path class="cls-3" d="M137.62,12.5a5.58,5.58,0,0,1,5.84,5.74c0,3-1.37,5.63-2.47,8A9.89,9.89,0,0,1,147.94,23c4.21,0,6.37,3.1,6.37,7,0,3.47-1.79,6.79-1.79,9.74,0,1.63.52,2.84,2.42,2.84-.26,3.95-3.42,7.37-7.32,7.37-3.16,0-5.42-2.32-5.42-5.74,0-4.11,3.21-8.95,3.21-12,0-1.32-.58-2.11-1.53-2.11-2.37,0-4.74,4.85-4.74,8.74,0,2.69,1.16,4.21,2.85,4.69a7,7,0,0,1-7.43,6.42c-4.42,0-5.94-3.42-5.94-6.58,0-5.42,4.47-16.06,4.47-22.06,0-1.89-1.05-2.95-2.37-3.05C130.93,15.08,133.78,12.5,137.62,12.5Z" transform="translate(-3.45 -3.77)"/></g><g id="tm"><path class="cls-1" d="M150.32,14.47h-.82v-.3h2v.3h-.83v2.41h-.35Z" transform="translate(-3.45 -3.77)"/><path class="cls-1" d="M154.08,15.69c0-.38-.05-.83,0-1.17h0c-.1.32-.21.66-.34,1l-.48,1.31h-.27l-.43-1.29c-.13-.38-.24-.73-.32-1.05h0c0,.34,0,.79-.06,1.2l-.07,1.16h-.33l.19-2.71h.44l.46,1.31a9.12,9.12,0,0,1,.28.91h0c.07-.27.16-.57.28-.91l.48-1.31h.45l.17,2.71h-.34Z" transform="translate(-3.45 -3.77)"/><path class="cls-1" d="M152.1,11.93a3.43,3.43,0,1,1-3.44,3.43,3.43,3.43,0,0,1,3.44-3.43m0-.5A3.93,3.93,0,1,0,156,15.36a3.94,3.94,0,0,0-3.93-3.93Z" transform="translate(-3.45 -3.77)"/></g></svg>