<svg id="Layer_1" data-name="Layer 1" xmlns="http://www.w3.org/2000/svg" width="56.59" height="56.59" viewBox="0 0 56.59 56.59"><defs><style>.cls-1{fill:none;stroke:#fff;stroke-linecap:round;stroke-linejoin:round;stroke-width:1.77px;}</style></defs><g id="wc_toilet" data-name="wc toilet"><path class="cls-1" d="M22.08,29.32H54.8A2.65,2.65,0,0,1,57.45,32v5.31" transform="translate(-1.75 -1.91)"/><path class="cls-1" d="M18.55,37.28H2.63V32.86H15" transform="translate(-1.75 -1.91)"/><path class="cls-1" d="M2.63,37.28a8,8,0,0,1,8,8V57.61h38V48.77A1.77,1.77,0,0,1,50.38,47h0a7.07,7.07,0,0,0,7.07-7.07V37.28H22.08v2.65A7.07,7.07,0,0,0,29.16,47H43.3" transform="translate(-1.75 -1.91)"/><line class="cls-1" x1="29.18" y1="52.17" x2="29.18" y2="45.09"/><path class="cls-1" d="M2.63,32.86V4.56A1.77,1.77,0,0,1,4.4,2.8H16.78a1.76,1.76,0,0,1,1.77,1.76v28.3h38.9" transform="translate(-1.75 -1.91)"/><polygon class="cls-1" points="37.13 14.15 38.9 11.49 40.67 14.15 43.32 15.91 40.67 17.68 38.9 20.34 37.13 17.68 34.48 15.91 37.13 14.15"/><polygon class="cls-1" points="44.21 5.3 45.98 0.88 47.74 5.3 52.16 7.07 47.74 8.84 45.98 13.26 44.21 8.84 39.79 7.07 44.21 5.3"/></g></svg>